<?xml version="1.0" encoding="UTF-8" standalone="no"?>
<!DOCTYPE svg PUBLIC "-//W3C//DTD SVG 1.1//EN" "http://www.w3.org/Graphics/SVG/1.1/DTD/svg11.dtd">
<svg width="100%" height="100%" viewBox="0 0 1700 125" version="1.1" xmlns="http://www.w3.org/2000/svg" xmlns:xlink="http://www.w3.org/1999/xlink" xml:space="preserve" xmlns:serif="http://www.serif.com/" style="fill-rule:evenodd;clip-rule:evenodd;stroke-linejoin:round;stroke-miterlimit:2;">
    <g transform="matrix(1,0,0,1,-10.1916,-102.743)">
        <g id="Artboard1" transform="matrix(1.01188,0,0,3.83566,-111.404,-1906.26)">
            <rect x="110.096" y="496.983" width="1699.81" height="86.035" style="fill:none;"/>
            <g transform="matrix(0.988261,0,0,0.260711,11.3644,419.286)">
                <g transform="matrix(0.82563,0,0,0.82563,-406.153,201.348)">
                    <path d="M668.165,367.307L627.701,367.307C626.363,367.307 625.278,366.223 625.278,364.885L625.278,268.837C625.278,267.499 626.363,266.414 627.701,266.414L668.021,266.414C699.724,266.414 722.427,285.538 722.427,316.789C722.427,348.04 699.718,367.307 668.165,367.307ZM654.891,292.859L654.891,340.862L668.021,340.862C683.332,340.862 692.238,329.745 692.238,316.789C692.238,310.036 690.264,304.016 686.231,299.706C682.205,295.401 676.152,292.859 668.165,292.859L654.891,292.859Z" style="fill:white;fill-rule:nonzero;"/>
                    <path d="M757.157,367.307L732.389,367.307C731.051,367.307 729.966,366.223 729.966,364.885L729.966,268.837C729.966,267.499 731.051,266.414 732.389,266.414L757.157,266.414C758.494,266.414 759.579,267.499 759.579,268.837L759.579,364.885C759.579,366.223 758.494,367.307 757.157,367.307Z" style="fill:white;fill-rule:nonzero;"/>
                    <path d="M765.545,349.953L778.649,331.377C779.061,330.793 779.71,330.42 780.422,330.359C781.134,330.298 781.836,330.555 782.341,331.06C788.867,337.586 798.929,343.022 811.301,343.022C814.998,343.022 817.989,342.3 820.041,341.016C821.597,340.042 822.558,338.757 822.558,337.237C822.558,335.404 821.367,334.241 819.474,333.24C816.801,331.827 812.91,330.839 808.076,329.818C799.927,328.188 790.165,326.292 782.426,321.922C774.191,317.273 768.126,309.943 768.126,297.493C768.126,280.238 782.508,264.974 808.853,264.974C824.889,264.974 838.814,269.809 849.455,278.951C850.429,279.788 850.581,281.24 849.801,282.26L836.265,299.972C835.866,300.494 835.272,300.832 834.619,300.907C833.966,300.983 833.311,300.79 832.803,300.373C825.196,294.124 815.283,290.987 807.269,290.987C801.069,290.987 798.315,292.899 798.315,296.053C798.315,297.642 799.432,298.556 801.203,299.385C803.878,300.636 807.829,301.497 812.903,302.457C812.918,302.46 812.933,302.463 812.948,302.466C821.1,304.17 830.794,306.248 838.464,310.657C846.631,315.352 852.603,322.586 852.603,334.501C852.603,344.929 848.71,353.589 841.375,359.659C834.23,365.572 823.719,369.035 810.149,369.035C789.935,369.035 775.883,362.683 765.851,353.101C764.984,352.272 764.854,350.933 765.545,349.953Z" style="fill:white;fill-rule:nonzero;"/>
                    <path d="M886.469,367.307L861.701,367.307C860.363,367.307 859.278,366.223 859.278,364.885L859.278,268.837C859.278,267.499 860.363,266.414 861.701,266.414L909.797,266.414C932.997,266.414 945.627,282.09 945.627,300.805C945.627,319.373 933.007,334.763 909.797,334.763L888.891,334.763L888.891,364.885C888.891,366.223 887.806,367.307 886.469,367.307ZM915.582,300.661C915.582,295.464 911.681,292.139 906.485,292.139L888.891,292.139C888.891,292.139 888.891,308.894 888.891,308.894L906.485,308.894C911.664,308.894 915.582,305.728 915.582,300.661Z" style="fill:white;fill-rule:nonzero;"/>
                    <path d="M1037.24,367.307L1010.31,367.307C1009.27,367.307 1008.35,366.643 1008.01,365.658L1003.67,352.763L967.265,352.763L962.924,365.658C962.593,366.643 961.669,367.307 960.629,367.307L933.701,367.307C932.906,367.307 932.161,366.917 931.709,366.264C931.256,365.61 931.153,364.776 931.433,364.032L967.577,267.984C967.933,267.04 968.836,266.414 969.845,266.414L1000.95,266.414C1001.96,266.414 1002.86,267.038 1003.22,267.981L1039.5,364.029C1039.78,364.773 1039.68,365.608 1039.23,366.262C1038.78,366.917 1038.03,367.307 1037.24,367.307ZM995.528,327.038L985.409,297.864L975.397,327.038L995.528,327.038Z" style="fill:white;fill-rule:nonzero;"/>
                    <path d="M1081.59,367.307L1056.82,367.307C1055.48,367.307 1054.4,366.223 1054.4,364.885C1054.4,364.885 1054.4,292.859 1054.4,292.859L1029.89,292.859C1028.56,292.859 1027.47,291.775 1027.47,290.437L1027.47,268.837C1027.47,267.499 1028.56,266.414 1029.89,266.414L1108.37,266.414C1109.71,266.414 1110.8,267.499 1110.8,268.837L1110.8,290.437C1110.8,291.775 1109.71,292.859 1108.37,292.859C1108.37,292.859 1084.01,292.859 1084.01,292.859L1084.01,364.885C1084.01,366.223 1082.93,367.307 1081.59,367.307Z" style="fill:white;fill-rule:nonzero;"/>
                    <path d="M1163.38,369.035C1133.2,369.035 1109.69,347.869 1109.69,316.933C1109.69,285.845 1133.2,264.83 1163.38,264.83C1188.51,264.83 1201.51,278.626 1208.17,291.946C1208.46,292.528 1208.51,293.204 1208.29,293.82C1208.08,294.436 1207.63,294.94 1207.04,295.219L1185.73,305.299C1185.13,305.582 1184.44,305.608 1183.82,305.369C1183.2,305.131 1182.71,304.65 1182.45,304.038C1179.62,297.211 1172.27,291.563 1163.38,291.563C1149.75,291.563 1139.74,302.647 1139.74,316.933C1139.74,331.218 1149.75,342.302 1163.38,342.302C1172.27,342.302 1179.62,336.654 1182.45,329.828C1182.71,329.216 1183.2,328.735 1183.82,328.496C1184.44,328.258 1185.13,328.284 1185.73,328.567L1207.04,338.647C1207.63,338.926 1208.08,339.43 1208.29,340.046C1208.51,340.662 1208.46,341.337 1208.17,341.92C1201.66,354.937 1188.51,369.035 1163.38,369.035Z" style="fill:white;fill-rule:nonzero;"/>
                    <path d="M1306.09,367.307L1281.32,367.307C1279.98,367.307 1278.89,366.223 1278.89,364.885L1278.89,328.715L1243.85,328.715L1243.85,364.885C1243.85,366.223 1242.77,367.307 1241.43,367.307L1216.66,367.307C1215.32,367.307 1214.24,366.223 1214.24,364.885L1214.24,268.837C1214.24,267.499 1215.32,266.414 1216.66,266.414L1241.43,266.414C1242.77,266.414 1243.85,267.499 1243.85,268.837L1243.85,302.27L1278.89,302.27L1278.89,268.837C1278.89,267.499 1279.98,266.414 1281.32,266.414L1306.09,266.414C1307.42,266.414 1308.51,267.499 1308.51,268.837L1308.51,364.885C1308.51,366.223 1307.42,367.307 1306.09,367.307Z" style="fill:white;fill-rule:nonzero;"/>
                    <path d="M1393.78,367.307L1323.37,367.307C1322.03,367.307 1320.94,366.223 1320.94,364.885L1320.94,268.837C1320.94,267.499 1322.03,266.414 1323.37,266.414L1393.78,266.414C1395.12,266.414 1396.2,267.499 1396.2,268.837L1396.2,289.717C1396.2,291.055 1395.12,292.139 1393.78,292.139L1350.56,292.139L1350.56,303.278L1392.77,303.278C1394.11,303.278 1395.19,304.363 1395.19,305.701L1395.19,326.725C1395.19,328.063 1394.11,329.147 1392.77,329.147L1350.56,329.147L1350.56,341.582L1393.78,341.582C1395.12,341.582 1396.2,342.667 1396.2,344.005L1396.2,364.885C1396.2,366.223 1395.12,367.307 1393.78,367.307Z" style="fill:white;fill-rule:nonzero;"/>
                    <path d="M1399.29,349.953L1412.39,331.377C1412.81,330.793 1413.45,330.42 1414.17,330.359C1414.88,330.298 1415.58,330.555 1416.09,331.06C1422.61,337.586 1432.67,343.022 1445.05,343.022C1448.74,343.022 1451.73,342.3 1453.79,341.016C1455.34,340.042 1456.3,338.757 1456.3,337.237C1456.3,335.404 1455.11,334.241 1453.22,333.24C1450.55,331.827 1446.65,330.839 1441.82,329.818C1433.67,328.188 1423.91,326.292 1416.17,321.922C1407.93,317.273 1401.87,309.943 1401.87,297.493C1401.87,280.238 1416.25,264.974 1442.6,264.974C1458.63,264.974 1472.56,269.809 1483.2,278.951C1484.17,279.788 1484.33,281.24 1483.55,282.26L1470.01,299.972C1469.61,300.494 1469.02,300.832 1468.36,300.907C1467.71,300.983 1467.06,300.79 1466.55,300.373C1458.94,294.124 1449.03,290.987 1441.01,290.987C1434.81,290.987 1432.06,292.899 1432.06,296.053C1432.06,297.642 1433.18,298.556 1434.95,299.385C1437.62,300.636 1441.57,301.497 1446.65,302.457C1446.66,302.46 1446.68,302.463 1446.69,302.466C1454.84,304.17 1464.54,306.248 1472.21,310.657C1480.38,315.352 1486.35,322.586 1486.35,334.501C1486.35,344.929 1482.45,353.589 1475.12,359.659C1467.97,365.572 1457.46,369.035 1443.89,369.035C1423.68,369.035 1409.63,362.683 1399.6,353.101C1398.73,352.272 1398.6,350.933 1399.29,349.953Z" style="fill:white;fill-rule:nonzero;"/>
                </g>
                <g transform="matrix(0.82563,0,0,0.82563,-406.153,201.348)">
                    <path d="M668.165,364.885C698.261,364.885 720.005,346.597 720.005,316.789C720.005,286.981 698.261,268.837 668.021,268.837L627.701,268.837L627.701,364.885L668.165,364.885ZM652.469,290.437L668.165,290.437C685.733,290.437 694.661,301.957 694.661,316.789C694.661,331.045 684.869,343.285 668.021,343.285L652.469,343.285L652.469,290.437Z" style="fill-rule:nonzero;"/>
                    <rect x="732.389" y="268.837" width="24.768" height="96.048" style="fill-rule:nonzero;"/>
                    <path d="M767.525,351.349C777.173,360.565 790.709,366.613 810.149,366.613C835.925,366.613 850.181,353.797 850.181,334.501C850.181,312.757 828.293,308.149 812.453,304.837C801.797,302.821 795.893,301.093 795.893,296.053C795.893,291.877 799.061,288.565 807.269,288.565C815.765,288.565 826.277,291.877 834.341,298.501L847.877,280.789C837.653,272.005 824.261,267.397 808.853,267.397C784.229,267.397 770.549,281.365 770.549,297.493C770.549,320.245 792.725,324.277 808.565,327.445C818.789,329.605 824.981,331.765 824.981,337.237C824.981,341.845 819.797,345.445 811.301,345.445C798.197,345.445 787.541,339.685 780.629,332.773L767.525,351.349Z" style="fill-rule:nonzero;"/>
                    <path d="M886.469,364.885L886.469,332.341L909.797,332.341C931.397,332.341 943.205,318.085 943.205,300.805C943.205,283.381 931.397,268.837 909.797,268.837L861.701,268.837L861.701,364.885L886.469,364.885ZM918.005,300.661C918.005,307.141 913.109,311.317 906.485,311.317L886.469,311.317L886.469,289.717L906.485,289.717C913.109,289.717 918.005,294.037 918.005,300.661Z" style="fill-rule:nonzero;"/>
                    <path d="M1037.24,364.885L1000.95,268.837L969.845,268.837L933.701,364.885L960.629,364.885L965.525,350.341L1005.41,350.341L1010.31,364.885L1037.24,364.885ZM998.933,329.461L972.005,329.461L985.397,290.437L998.933,329.461Z" style="fill-rule:nonzero;"/>
                    <path d="M1081.59,364.885L1081.59,290.437L1108.37,290.437L1108.37,268.837L1029.89,268.837L1029.89,290.437L1056.82,290.437L1056.82,364.885L1081.59,364.885Z" style="fill-rule:nonzero;"/>
                    <path d="M1163.38,366.613C1187.29,366.613 1199.81,353.221 1206.01,340.837L1184.69,330.757C1181.53,338.389 1173.32,344.725 1163.38,344.725C1148.4,344.725 1137.32,332.629 1137.32,316.933C1137.32,301.237 1148.4,289.141 1163.38,289.141C1173.32,289.141 1181.53,295.477 1184.69,303.109L1206.01,293.029C1199.67,280.357 1187.29,267.253 1163.38,267.253C1134.58,267.253 1112.12,287.269 1112.12,316.933C1112.12,346.453 1134.58,366.613 1163.38,366.613Z" style="fill-rule:nonzero;"/>
                    <path d="M1306.09,364.885L1306.09,268.837L1281.32,268.837L1281.32,304.693L1241.43,304.693L1241.43,268.837L1216.66,268.837L1216.66,364.885L1241.43,364.885L1241.43,326.293L1281.32,326.293L1281.32,364.885L1306.09,364.885Z" style="fill-rule:nonzero;"/>
                    <path d="M1393.78,364.885L1393.78,344.005L1348.13,344.005L1348.13,326.725L1392.77,326.725L1392.77,305.701L1348.13,305.701L1348.13,289.717L1393.78,289.717L1393.78,268.837L1323.37,268.837L1323.37,364.885L1393.78,364.885Z" style="fill-rule:nonzero;"/>
                    <path d="M1401.27,351.349C1410.92,360.565 1424.45,366.613 1443.89,366.613C1469.67,366.613 1483.92,353.797 1483.92,334.501C1483.92,312.757 1462.04,308.149 1446.2,304.837C1435.54,302.821 1429.64,301.093 1429.64,296.053C1429.64,291.877 1432.81,288.565 1441.01,288.565C1449.51,288.565 1460.02,291.877 1468.09,298.501L1481.62,280.789C1471.4,272.005 1458.01,267.397 1442.6,267.397C1417.97,267.397 1404.29,281.365 1404.29,297.493C1404.29,320.245 1426.47,324.277 1442.31,327.445C1452.53,329.605 1458.73,331.765 1458.73,337.237C1458.73,341.845 1453.54,345.445 1445.05,345.445C1431.94,345.445 1421.29,339.685 1414.37,332.773L1401.27,351.349Z" style="fill-rule:nonzero;"/>
                </g>
                <g transform="matrix(0.82563,0,0,0.82563,1084.1,502.549)">
                    <path d="M33.408,2.422L8.64,2.422C7.302,2.422 6.218,1.338 6.218,0L6.218,-96.048C6.218,-97.386 7.302,-98.47 8.64,-98.47L79.056,-98.47C80.394,-98.47 81.478,-97.386 81.478,-96.048L81.478,-75.168C81.478,-73.83 80.394,-72.746 79.056,-72.746L35.83,-72.746L35.83,-61.606L78.048,-61.606C79.386,-61.606 80.47,-60.522 80.47,-59.184L80.47,-38.16C80.47,-36.822 79.386,-35.738 78.048,-35.738C78.048,-35.738 35.83,-35.738 35.83,-35.738L35.83,0C35.83,1.338 34.746,2.422 33.408,2.422Z" style="fill:white;fill-rule:nonzero;"/>
                    <path d="M178.992,2.422L152.064,2.422C151.024,2.422 150.1,1.759 149.768,0.773L145.427,-12.122L109.021,-12.122L104.68,0.773C104.348,1.759 103.424,2.422 102.384,2.422L75.456,2.422C74.661,2.422 73.917,2.032 73.464,1.379C73.012,0.725 72.909,-0.109 73.189,-0.853L109.333,-96.901C109.688,-97.845 110.591,-98.47 111.6,-98.47L142.704,-98.47C143.712,-98.47 144.614,-97.847 144.97,-96.904L181.258,-0.856C181.539,-0.112 181.437,0.723 180.985,1.377C180.532,2.032 179.788,2.422 178.992,2.422ZM137.284,-37.846L127.164,-67.021L117.152,-37.846L137.284,-37.846Z" style="fill:white;fill-rule:nonzero;"/>
                    <path d="M267.984,2.422L239.616,2.422C238.695,2.422 237.854,1.901 237.446,1.076C237.446,1.076 221.985,-30.122 221.985,-30.122L213.238,-30.122L213.238,-0C213.238,1.338 212.154,2.422 210.816,2.422L186.048,2.422C184.71,2.422 183.626,1.338 183.626,0L183.626,-96.048C183.626,-97.386 184.71,-98.47 186.048,-98.47L234.144,-98.47C257.035,-98.47 269.974,-83.259 269.974,-64.08C269.974,-47.651 260.769,-38.218 251.841,-34.073L270.102,-1.176C270.518,-0.425 270.507,0.489 270.072,1.229C269.636,1.968 268.842,2.422 267.984,2.422ZM239.93,-64.368C239.93,-69.586 235.504,-72.746 230.4,-72.746L213.238,-72.746L213.238,-55.99L230.4,-55.99C235.504,-55.99 239.93,-59.15 239.93,-64.368Z" style="fill:white;fill-rule:nonzero;"/>
                    <path d="M400.032,2.422L371.664,2.422C370.743,2.422 369.902,1.901 369.494,1.076C369.494,1.076 354.033,-30.122 354.033,-30.122L345.286,-30.122L345.286,0C345.286,1.338 344.202,2.422 342.864,2.422L318.096,2.422C316.758,2.422 315.674,1.338 315.674,0L315.674,-96.048C315.674,-97.386 316.758,-98.47 318.096,-98.47L366.192,-98.47C389.083,-98.47 402.022,-83.259 402.022,-64.08C402.022,-47.651 392.817,-38.218 383.889,-34.073L402.15,-1.176C402.566,-0.425 402.555,0.489 402.12,1.229C401.684,1.968 400.89,2.422 400.032,2.422ZM371.978,-64.368C371.978,-69.586 367.552,-72.746 362.448,-72.746L345.286,-72.746L345.286,-55.99L362.448,-55.99C367.552,-55.99 371.978,-59.15 371.978,-64.368Z" style="fill:white;fill-rule:nonzero;"/>
                    <path d="M483.696,2.422L413.28,2.422C411.942,2.422 410.858,1.338 410.858,0L410.858,-96.048C410.858,-97.386 411.942,-98.47 413.28,-98.47L483.696,-98.47C485.034,-98.47 486.118,-97.386 486.118,-96.048L486.118,-75.168C486.118,-73.83 485.034,-72.746 483.696,-72.746L440.47,-72.746L440.47,-61.606L482.688,-61.606C484.026,-61.606 485.11,-60.522 485.11,-59.184L485.11,-38.16C485.11,-36.822 484.026,-35.738 482.688,-35.738L440.47,-35.738L440.47,-23.302L483.696,-23.302C485.034,-23.302 486.118,-22.218 486.118,-20.88L486.118,-0C486.118,1.338 485.034,2.422 483.696,2.422Z" style="fill:white;fill-rule:nonzero;"/>
                    <path d="M591.408,2.422L564.48,2.422C563.44,2.422 562.516,1.759 562.184,0.773L557.843,-12.122L521.437,-12.122L517.096,0.773C516.764,1.759 515.84,2.422 514.8,2.422L487.872,2.422C487.077,2.422 486.333,2.032 485.88,1.379C485.428,0.725 485.325,-0.109 485.605,-0.853L521.749,-96.901C522.104,-97.845 523.007,-98.47 524.016,-98.47L555.12,-98.47C556.128,-98.47 557.03,-97.847 557.386,-96.904L593.674,-0.856C593.955,-0.112 593.853,0.723 593.401,1.377C592.948,2.032 592.204,2.422 591.408,2.422ZM549.7,-37.846L539.58,-67.021L529.568,-37.846L549.7,-37.846Z" style="fill:white;fill-rule:nonzero;"/>
                    <path d="M661.824,2.422L598.464,2.422C597.126,2.422 596.042,1.338 596.042,0L596.042,-96.048C596.042,-97.386 597.126,-98.47 598.464,-98.47L623.232,-98.47C624.57,-98.47 625.654,-97.386 625.654,-96.048L625.654,-24.022L661.824,-24.022C663.162,-24.022 664.246,-22.938 664.246,-21.6L664.246,-0C664.246,1.338 663.162,2.422 661.824,2.422Z" style="fill:white;fill-rule:nonzero;"/>
                    <path d="M783.648,2.422L758.88,2.422C757.542,2.422 756.458,1.338 756.458,0L756.458,-51.46L736.812,0.852C736.457,1.797 735.553,2.422 734.544,2.422L723.6,2.422C722.589,2.422 721.684,1.794 721.331,0.847L701.83,-51.385L701.83,0C701.83,1.338 700.746,2.422 699.408,2.422L674.64,2.422C673.302,2.422 672.218,1.338 672.218,0L672.218,-96.048C672.218,-97.386 673.302,-98.47 674.64,-98.47L709.056,-98.47C710.071,-98.47 710.979,-97.837 711.33,-96.884L729.08,-48.613L746.96,-96.889C747.312,-97.84 748.219,-98.47 749.232,-98.47L783.648,-98.47C784.986,-98.47 786.07,-97.386 786.07,-96.048L786.07,-0C786.07,1.338 784.986,2.422 783.648,2.422Z" style="fill:white;fill-rule:nonzero;"/>
                    <path d="M792.037,-14.932L805.141,-33.508C805.552,-34.092 806.201,-34.465 806.913,-34.526C807.625,-34.587 808.328,-34.33 808.833,-33.825C815.359,-27.299 825.42,-21.862 837.792,-21.862C841.489,-21.862 844.48,-22.585 846.533,-23.869C848.088,-24.843 849.05,-26.128 849.05,-27.648C849.05,-29.48 847.859,-30.644 845.966,-31.644C843.293,-33.058 839.402,-34.046 834.568,-35.067C826.419,-36.697 816.657,-38.593 808.917,-42.963C800.682,-47.612 794.618,-54.942 794.618,-67.392C794.618,-84.647 809,-99.91 835.344,-99.91C851.381,-99.91 865.306,-95.076 875.947,-85.933C876.921,-85.097 877.072,-83.645 876.293,-82.625L862.757,-64.913C862.358,-64.391 861.764,-64.053 861.111,-63.978C860.458,-63.902 859.802,-64.095 859.294,-64.512C851.687,-70.761 841.775,-73.898 833.76,-73.898C827.56,-73.898 824.806,-71.986 824.806,-68.832C824.806,-67.243 825.924,-66.329 827.695,-65.5C830.369,-64.249 834.32,-63.388 839.394,-62.428C839.409,-62.425 839.425,-62.422 839.44,-62.419C847.591,-60.715 857.286,-58.637 864.955,-54.228C873.122,-49.533 879.094,-42.299 879.094,-30.384C879.094,-19.955 875.201,-11.296 867.866,-5.226C860.721,0.687 850.21,4.15 836.64,4.15C816.426,4.15 802.375,-2.202 792.343,-11.784C791.475,-12.613 791.345,-13.952 792.037,-14.932Z" style="fill:white;fill-rule:nonzero;"/>
                </g>
                <g transform="matrix(0.82563,0,0,0.82563,1084.1,502.549)">
                    <path d="M33.408,0L33.408,-38.16L78.048,-38.16L78.048,-59.184L33.408,-59.184L33.408,-75.168L79.056,-75.168L79.056,-96.048L8.64,-96.048L8.64,0L33.408,0Z" style="fill-rule:nonzero;"/>
                    <path d="M178.992,0L142.704,-96.048L111.6,-96.048L75.456,0L102.384,0L107.28,-14.544L147.168,-14.544L152.064,0L178.992,0ZM140.688,-35.424L113.76,-35.424L127.152,-74.448L140.688,-35.424Z" style="fill-rule:nonzero;"/>
                    <path d="M267.984,0L248.4,-35.28C257.328,-38.448 267.552,-47.376 267.552,-64.08C267.552,-81.936 255.456,-96.048 234.144,-96.048L186.048,-96.048L186.048,0L210.816,0L210.816,-32.544L223.488,-32.544L239.616,0L267.984,0ZM242.352,-64.368C242.352,-57.744 236.88,-53.568 230.4,-53.568L210.816,-53.568L210.816,-75.168L230.4,-75.168C236.88,-75.168 242.352,-70.992 242.352,-64.368Z" style="fill-rule:nonzero;"/>
                    <path d="M400.032,0L380.448,-35.28C389.376,-38.448 399.6,-47.376 399.6,-64.08C399.6,-81.936 387.504,-96.048 366.192,-96.048L318.096,-96.048L318.096,0L342.864,0L342.864,-32.544L355.536,-32.544L371.664,0L400.032,0ZM374.4,-64.368C374.4,-57.744 368.928,-53.568 362.448,-53.568L342.864,-53.568L342.864,-75.168L362.448,-75.168C368.928,-75.168 374.4,-70.992 374.4,-64.368Z" style="fill-rule:nonzero;"/>
                    <path d="M483.696,0L483.696,-20.88L438.048,-20.88L438.048,-38.16L482.688,-38.16L482.688,-59.184L438.048,-59.184L438.048,-75.168L483.696,-75.168L483.696,-96.048L413.28,-96.048L413.28,0L483.696,0Z" style="fill-rule:nonzero;"/>
                    <path d="M591.408,0L555.12,-96.048L524.016,-96.048L487.872,0L514.8,0L519.696,-14.544L559.584,-14.544L564.48,0L591.408,0ZM553.104,-35.424L526.176,-35.424L539.568,-74.448L553.104,-35.424Z" style="fill-rule:nonzero;"/>
                    <path d="M661.824,0L661.824,-21.6L623.232,-21.6L623.232,-96.048L598.464,-96.048L598.464,0L661.824,0Z" style="fill-rule:nonzero;"/>
                    <path d="M783.648,0L783.648,-96.048L749.232,-96.048L729.072,-41.616L709.056,-96.048L674.64,-96.048L674.64,0L699.408,0L699.408,-64.8L723.6,0L734.544,0L758.88,-64.8L758.88,0L783.648,0Z" style="fill-rule:nonzero;"/>
                    <path d="M794.016,-13.536C803.664,-4.32 817.2,1.728 836.64,1.728C862.416,1.728 876.672,-11.088 876.672,-30.384C876.672,-52.128 854.784,-56.736 838.944,-60.048C828.288,-62.064 822.384,-63.792 822.384,-68.832C822.384,-73.008 825.552,-76.32 833.76,-76.32C842.256,-76.32 852.768,-73.008 860.832,-66.384L874.368,-84.096C864.144,-92.88 850.752,-97.488 835.344,-97.488C810.72,-97.488 797.04,-83.52 797.04,-67.392C797.04,-44.64 819.216,-40.608 835.056,-37.44C845.28,-35.28 851.472,-33.12 851.472,-27.648C851.472,-23.04 846.288,-19.44 837.792,-19.44C824.688,-19.44 814.032,-25.2 807.12,-32.112L794.016,-13.536Z" style="fill-rule:nonzero;"/>
                </g>
                <g transform="matrix(3.11613,0,0,4.62751,-1512.98,-293.327)">
                    <g>
                        <path d="M752.158,176.848C751.758,176.688 751.518,176.384 751.438,175.936C751.374,175.504 751.102,175.152 750.622,174.88C750.75,174.064 750.894,173.24 751.054,172.408C751.214,171.576 751.418,170.628 751.666,169.564C751.914,168.5 752.226,167.26 752.602,165.844C752.978,164.428 753.454,162.712 754.03,160.696C753.502,160.696 753.086,160.704 752.782,160.72C752.478,160.736 752.182,160.768 751.894,160.816C751.83,160.752 751.778,160.664 751.738,160.552C751.698,160.44 751.678,160.336 751.678,160.24C751.838,160.176 752.166,160.092 752.662,159.988C753.158,159.884 753.702,159.792 754.294,159.712C754.678,158.496 755.118,157.404 755.614,156.436C756.11,155.468 756.646,154.64 757.222,153.952C757.798,153.264 758.406,152.736 759.046,152.368C759.686,152 760.334,151.816 760.99,151.816C761.182,151.816 761.366,151.828 761.542,151.852C761.718,151.876 761.854,151.888 761.95,151.888C762.094,151.776 762.286,151.676 762.526,151.588C762.766,151.5 762.974,151.456 763.15,151.456C763.342,151.456 763.59,151.56 763.894,151.768C763.766,151.992 763.63,152.296 763.486,152.68C763.342,153.064 763.222,153.44 763.126,153.808C762.726,154.992 762.302,155.76 761.854,156.112C761.678,156.112 761.582,155.88 761.566,155.416C761.55,155.08 761.502,154.752 761.422,154.432C761.358,154.288 761.314,154.16 761.29,154.048C761.266,153.936 761.254,153.792 761.254,153.616C761.254,153.52 761.262,153.404 761.278,153.268C761.294,153.132 761.326,152.904 761.374,152.584C761.102,152.584 760.802,152.752 760.474,153.088C760.146,153.424 759.802,153.9 759.442,154.516C759.082,155.132 758.718,155.864 758.35,156.712C757.982,157.56 757.63,158.496 757.294,159.52L759.31,159.448C759.39,159.528 759.458,159.708 759.514,159.988C759.57,160.268 759.606,160.56 759.622,160.864L756.982,160.72C756.374,162.528 755.806,164.256 755.278,165.904C754.75,167.552 754.278,169.072 753.862,170.464C753.446,171.856 753.09,173.1 752.794,174.196C752.498,175.292 752.286,176.176 752.158,176.848Z" style="fill-rule:nonzero;"/>
                        <path d="M758.47,169.432C758.55,168.968 758.69,168.356 758.89,167.596C759.09,166.836 759.326,166.028 759.598,165.172C759.87,164.316 760.158,163.456 760.462,162.592C760.766,161.728 761.062,160.952 761.35,160.264C761.558,159.768 761.742,159.38 761.902,159.1C762.062,158.82 762.238,158.584 762.43,158.392C762.654,158.424 762.886,158.48 763.126,158.56C763.366,158.64 763.598,158.736 763.822,158.848C764.046,158.96 764.246,159.076 764.422,159.196C764.598,159.316 764.734,159.432 764.83,159.544C764.398,160.056 764.018,160.64 763.69,161.296C763.362,161.952 763.03,162.792 762.694,163.816C763.558,163.048 764.322,162.312 764.986,161.608C765.65,160.904 766.27,160.12 766.846,159.256C766.942,159.176 767.11,159.136 767.35,159.136C767.574,159.136 767.79,159.172 767.998,159.244C768.206,159.316 768.35,159.416 768.43,159.544C768.142,160.312 767.998,161.072 767.998,161.824C767.998,162.528 768.102,163.056 768.31,163.408C768.294,163.504 768.186,163.688 767.986,163.96C767.786,164.232 767.566,164.488 767.326,164.728C766.894,164.504 766.51,164.196 766.174,163.804C765.838,163.412 765.59,162.984 765.43,162.52C764.678,163.048 764.038,163.564 763.51,164.068C762.982,164.572 762.53,165.132 762.154,165.748C761.778,166.364 761.458,167.072 761.194,167.872C760.93,168.672 760.678,169.624 760.438,170.728C760.294,170.712 760.122,170.66 759.922,170.572C759.722,170.484 759.522,170.376 759.322,170.248C759.122,170.12 758.942,169.984 758.782,169.84C758.622,169.696 758.518,169.56 758.47,169.432Z" style="fill-rule:nonzero;"/>
                        <path d="M771.55,170.752C770.638,170.656 769.91,170.256 769.366,169.552C768.822,168.848 768.55,167.952 768.55,166.864C768.55,166.224 768.646,165.56 768.838,164.872C769.03,164.184 769.302,163.516 769.654,162.868C770.006,162.22 770.422,161.608 770.902,161.032C771.382,160.456 771.902,159.96 772.462,159.544C773.342,158.888 774.166,158.56 774.934,158.56C775.446,158.832 775.95,159.4 776.446,160.264C776.526,160.264 776.598,160.26 776.662,160.252C776.726,160.244 776.798,160.24 776.878,160.24C777.726,160.24 778.15,160.992 778.15,162.496C778.15,163.504 777.986,164.46 777.658,165.364C777.33,166.268 776.874,167.088 776.29,167.824C775.706,168.56 775.01,169.18 774.202,169.684C773.394,170.188 772.51,170.544 771.55,170.752ZM772.774,163.192C772.502,163.56 772.246,163.96 772.006,164.392C771.766,164.824 771.558,165.26 771.382,165.7C771.206,166.14 771.07,166.564 770.974,166.972C770.878,167.38 770.83,167.744 770.83,168.064C770.83,168.448 770.894,168.816 771.022,169.168C771.15,169.52 771.294,169.72 771.454,169.768C772.174,169.608 772.834,169.308 773.434,168.868C774.034,168.428 774.554,167.88 774.994,167.224C775.434,166.568 775.778,165.824 776.026,164.992C776.274,164.16 776.398,163.272 776.398,162.328C776.398,161.912 776.374,161.584 776.326,161.344C776.278,161.104 776.198,160.896 776.086,160.72C775.382,160.928 774.754,161.264 774.202,161.728C773.65,162.192 773.174,162.68 772.774,163.192Z" style="fill-rule:nonzero;"/>
                        <path d="M793.174,162.544C792.918,162.56 792.606,162.724 792.238,163.036C791.87,163.348 791.474,163.748 791.05,164.236C790.626,164.724 790.186,165.264 789.73,165.856C789.274,166.448 788.834,167.036 788.41,167.62C787.986,168.204 787.59,168.752 787.222,169.264C786.854,169.776 786.542,170.184 786.286,170.488C785.934,170.344 785.63,170.132 785.374,169.852C785.118,169.572 784.934,169.224 784.822,168.808C784.902,168.312 785.014,167.796 785.158,167.26C785.302,166.724 785.49,166.168 785.722,165.592C785.954,165.016 786.242,164.412 786.586,163.78C786.93,163.148 787.35,162.48 787.846,161.776C787.606,161.792 787.278,161.964 786.862,162.292C786.446,162.62 785.998,163.044 785.518,163.564C785.038,164.084 784.542,164.668 784.03,165.316C783.518,165.964 783.038,166.6 782.59,167.224C781.998,168.056 781.506,168.784 781.114,169.408C780.722,170.032 780.438,170.4 780.262,170.512C779.846,170.208 779.558,169.88 779.398,169.528C779.238,169.176 779.118,168.784 779.038,168.352C779.054,167.968 779.114,167.488 779.218,166.912C779.322,166.336 779.47,165.744 779.662,165.136C780.03,163.968 780.506,162.808 781.09,161.656C781.674,160.504 782.238,159.448 782.782,158.488C783.23,158.584 783.634,158.736 783.994,158.944C784.354,159.152 784.734,159.456 785.134,159.856C784.974,160.352 784.726,160.876 784.39,161.428C784.054,161.98 783.702,162.56 783.334,163.168C782.966,163.776 782.63,164.4 782.326,165.04C782.022,165.68 781.822,166.328 781.726,166.984C782.174,166.344 782.706,165.608 783.322,164.776C783.938,163.944 784.57,163.16 785.218,162.424C785.866,161.688 786.51,161.064 787.15,160.552C787.79,160.04 788.366,159.784 788.878,159.784C789.07,159.784 789.278,159.816 789.502,159.88C789.726,159.944 789.934,160.024 790.126,160.12C790.318,160.216 790.478,160.308 790.606,160.396C790.734,160.484 790.806,160.552 790.822,160.6C790.742,160.92 790.554,161.356 790.258,161.908C789.962,162.46 789.646,163.04 789.31,163.648C788.974,164.256 788.662,164.844 788.374,165.412C788.086,165.98 787.918,166.432 787.87,166.768C788.654,165.696 789.39,164.724 790.078,163.852C790.766,162.98 791.414,162.232 792.022,161.608C792.63,160.984 793.194,160.504 793.714,160.168C794.234,159.832 794.726,159.664 795.19,159.664C795.51,159.664 795.81,159.748 796.09,159.916C796.37,160.084 796.566,160.328 796.678,160.648C796.534,161.128 796.298,161.704 795.97,162.376C795.642,163.048 795.31,163.756 794.974,164.5C794.638,165.244 794.338,165.976 794.074,166.696C793.81,167.416 793.678,168.064 793.678,168.64C793.678,168.976 793.726,169.196 793.822,169.3C793.918,169.404 794.054,169.456 794.23,169.456C794.422,169.456 794.602,169.42 794.77,169.348C794.938,169.276 795.062,169.24 795.142,169.24C795.238,169.304 795.294,169.384 795.31,169.48C795.326,169.576 795.334,169.664 795.334,169.744C795.014,170 794.686,170.212 794.35,170.38C794.014,170.548 793.638,170.632 793.222,170.632C792.838,170.632 792.522,170.568 792.274,170.44C792.026,170.312 791.822,170.136 791.662,169.912C791.502,169.688 791.39,169.432 791.326,169.144C791.262,168.856 791.23,168.544 791.23,168.208C791.23,167.664 791.302,167.124 791.446,166.588C791.59,166.052 791.762,165.54 791.962,165.052C792.162,164.564 792.374,164.108 792.598,163.684C792.822,163.26 793.014,162.88 793.174,162.544Z" style="fill-rule:nonzero;"/>
                        <path d="M804.79,160.72C804.71,160.624 804.638,160.42 804.574,160.108C804.51,159.796 804.478,159.528 804.478,159.304C804.894,159.336 805.294,159.364 805.678,159.388C806.062,159.412 806.414,159.432 806.734,159.448C806.974,158.968 807.234,158.492 807.514,158.02C807.794,157.548 808.066,157.116 808.33,156.724C808.594,156.332 808.842,156 809.074,155.728C809.306,155.456 809.486,155.28 809.614,155.2C809.774,155.2 809.978,155.228 810.226,155.284C810.474,155.34 810.726,155.412 810.982,155.5C811.238,155.588 811.47,155.68 811.678,155.776C811.886,155.872 812.03,155.968 812.11,156.064C811.63,156.672 811.218,157.236 810.874,157.756C810.53,158.276 810.158,158.872 809.758,159.544C810.078,159.544 810.402,159.536 810.73,159.52C811.058,159.504 811.39,159.48 811.726,159.448C811.806,159.528 811.87,159.628 811.918,159.748C811.966,159.868 811.99,159.992 811.99,160.12C811.206,160.408 810.254,160.568 809.134,160.6C808.734,161.368 808.378,162.132 808.066,162.892C807.754,163.652 807.49,164.384 807.274,165.088C807.058,165.792 806.89,166.456 806.77,167.08C806.65,167.704 806.59,168.264 806.59,168.76C806.59,169.464 806.854,169.856 807.382,169.936C807.862,169.872 808.318,169.752 808.75,169.576C809.182,169.4 809.566,169.176 809.902,168.904C809.998,169.048 810.054,169.168 810.07,169.264C809.974,169.408 809.81,169.576 809.578,169.768C809.346,169.96 809.094,170.148 808.822,170.332C808.55,170.516 808.286,170.672 808.03,170.8C807.774,170.928 807.582,171 807.454,171.016C807.054,171 806.654,170.912 806.254,170.752C805.854,170.592 805.49,170.392 805.162,170.152C804.834,169.912 804.566,169.644 804.358,169.348C804.15,169.052 804.046,168.76 804.046,168.472C804.046,168.088 804.098,167.604 804.202,167.02C804.306,166.436 804.454,165.8 804.646,165.112C804.838,164.424 805.062,163.704 805.318,162.952C805.574,162.2 805.854,161.456 806.158,160.72L804.79,160.72Z" style="fill-rule:nonzero;"/>
                        <path d="M811.798,169.504C811.798,168.944 811.854,168.284 811.966,167.524C812.078,166.764 812.242,165.952 812.458,165.088C812.674,164.224 812.93,163.32 813.226,162.376C813.522,161.432 813.854,160.488 814.222,159.544C814.542,158.696 814.914,157.84 815.338,156.976C815.762,156.112 816.222,155.264 816.718,154.432C817.214,153.6 817.73,152.808 818.266,152.056C818.802,151.304 819.342,150.616 819.886,149.992C820.142,149.992 820.418,150.024 820.714,150.088C821.01,150.152 821.298,150.236 821.578,150.34C821.858,150.444 822.114,150.568 822.346,150.712C822.578,150.856 822.766,151 822.91,151.144C821.71,152.376 820.63,153.62 819.67,154.876C818.71,156.132 817.95,157.312 817.39,158.416C817.086,159.024 816.81,159.592 816.562,160.12C816.314,160.648 816.086,161.172 815.878,161.692C815.67,162.212 815.482,162.732 815.314,163.252C815.146,163.772 814.99,164.32 814.846,164.896C817.918,160.976 820.198,159.016 821.686,159.016C822.102,159.016 822.55,159.152 823.03,159.424C823.51,159.696 823.934,160.064 824.302,160.528C823.806,161.072 823.294,161.728 822.766,162.496C822.238,163.264 821.754,164.036 821.314,164.812C820.874,165.588 820.514,166.308 820.234,166.972C819.954,167.636 819.814,168.128 819.814,168.448C819.814,168.608 819.838,168.716 819.886,168.772C819.934,168.828 820.038,168.856 820.198,168.856C820.438,168.856 820.63,168.824 820.774,168.76C820.918,168.696 821.006,168.664 821.038,168.664C821.118,168.792 821.166,168.88 821.182,168.928C821.198,168.976 821.206,169.016 821.206,169.048C821.206,169.112 821.11,169.204 820.918,169.324C820.726,169.444 820.498,169.564 820.234,169.684C819.97,169.804 819.71,169.912 819.454,170.008C819.198,170.104 819.006,170.152 818.878,170.152C818.718,170.152 818.558,170.108 818.398,170.02C818.238,169.932 818.098,169.816 817.978,169.672C817.858,169.528 817.762,169.368 817.69,169.192C817.618,169.016 817.582,168.832 817.582,168.64C817.582,168.4 817.65,168.044 817.786,167.572C817.922,167.1 818.11,166.548 818.35,165.916C818.59,165.284 818.878,164.592 819.214,163.84C819.55,163.088 819.91,162.32 820.294,161.536C820.294,161.472 820.262,161.44 820.198,161.44C820.15,161.44 820.026,161.504 819.826,161.632C819.626,161.76 819.438,161.888 819.262,162.016C818.686,162.448 818.106,162.98 817.522,163.612C816.938,164.244 816.37,164.936 815.818,165.688C815.266,166.44 814.746,167.236 814.258,168.076C813.77,168.916 813.35,169.76 812.998,170.608C812.95,170.72 812.878,170.824 812.782,170.92C812.686,171.016 812.606,171.064 812.542,171.064C812.494,171.064 812.426,171.008 812.338,170.896C812.25,170.784 812.17,170.644 812.098,170.476C812.026,170.308 811.958,170.136 811.894,169.96C811.83,169.784 811.798,169.632 811.798,169.504Z" style="fill-rule:nonzero;"/>
                        <path d="M832.822,159.976C832.758,160.968 832.582,161.82 832.294,162.532C832.006,163.244 831.594,163.868 831.058,164.404C830.522,164.94 829.87,165.424 829.102,165.856C828.334,166.288 827.438,166.704 826.414,167.104C826.414,167.2 826.41,167.3 826.402,167.404C826.394,167.508 826.39,167.616 826.39,167.728C826.39,167.936 826.406,168.152 826.438,168.376C826.47,168.6 826.526,168.808 826.606,169C826.686,169.192 826.798,169.348 826.942,169.468C827.086,169.588 827.27,169.648 827.494,169.648C827.926,169.648 828.35,169.552 828.766,169.36C829.182,169.168 829.578,168.932 829.954,168.652C830.33,168.372 830.682,168.068 831.01,167.74C831.338,167.412 831.63,167.112 831.886,166.84C832.046,166.984 832.182,167.12 832.294,167.248C831.574,168.208 830.786,169.004 829.93,169.636C829.074,170.268 828.262,170.672 827.494,170.848C826.39,170.72 825.53,170.316 824.914,169.636C824.298,168.956 823.99,168.136 823.99,167.176C823.99,166.52 824.082,165.852 824.266,165.172C824.45,164.492 824.706,163.836 825.034,163.204C825.362,162.572 825.746,161.976 826.186,161.416C826.626,160.856 827.098,160.368 827.602,159.952C828.106,159.536 828.626,159.208 829.162,158.968C829.698,158.728 830.23,158.608 830.758,158.608C831.494,158.704 832.182,159.16 832.822,159.976ZM831.166,160.768C830.734,160.832 830.286,161.008 829.822,161.296C829.358,161.584 828.922,161.968 828.514,162.448C828.106,162.928 827.734,163.488 827.398,164.128C827.062,164.768 826.798,165.456 826.606,166.192C827.886,165.552 828.95,164.764 829.798,163.828C830.646,162.892 831.102,161.872 831.166,160.768Z" style="fill-rule:nonzero;"/>
                    </g>
                </g>
            </g>
        </g>
    </g>
</svg>
